<?xml version="1.0" standalone="no"?><!DOCTYPE svg PUBLIC "-//W3C//DTD SVG 1.1//EN" "http://www.w3.org/Graphics/SVG/1.1/DTD/svg11.dtd"><svg class="icon" width="200px" height="200.00px" viewBox="0 0 1024 1024" version="1.1" xmlns="http://www.w3.org/2000/svg"><path fill="#515151" d="M584.324741 147.13363l23.077926 23.248592-140.629334 140.629334-2.332444-0.284445c-90.168889-10.315852-199.262815 32.805926-268.060445 100.769185l-22.376296 22.509037-22.281481-22.300444c-43.956148-43.994074-109.568 20.15763-69.176889 64.815407l2.085926 2.199704 451.773629 452.190815 2.199704 2.104889c44.562963 40.353185 108.714667-24.955259 64.986074-69.025185l-23.096889-23.267556 22.148741-22.129778 4.740741-4.873481c65.611852-69.082074 106.761481-175.42637 96.673185-263.717926l-0.32237-2.446222 174.042074-174.023112a47.407407 47.407407 0 0 0 0-67.034074L651.491556 80.213333c-44.600889-44.619852-111.616 22.148741-67.166815 66.920297z m90.206815 90.206814l102.665481 102.665482-158.226963 158.264889a47.407407 47.407407 0 0 0-12.98963 42.666666l1.991112 8.305778c13.008593 59.297185-19.911111 149.466074-72.495408 202.42963l-22.072889 22.053926L241.019259 501.096296l22.319408-22.471111c52.849778-52.186074 143.17037-84.992 202.296889-71.717926l4.475259 1.118815a47.407407 47.407407 0 0 0 45.985185-12.231111l158.435556-158.454519z"  /><path fill="#515151" d="M374.689185 638.198519a47.407407 47.407407 0 0 1 2.123852 64.758518l-2.123852 2.275556-145.464889 145.464888a47.407407 47.407407 0 0 1-69.176889-64.758518l2.123852-2.275556 145.464889-145.464888a47.407407 47.407407 0 0 1 67.053037 0zM932.314074 361.035852a47.407407 47.407407 0 0 1-64.777481 69.176889l-2.275556-2.142815L584.457481 147.247407a47.407407 47.407407 0 0 1 64.758519-69.176888l2.275556 2.142814 280.822518 280.822519z"  /></svg>