<?xml version="1.0" standalone="no"?><!DOCTYPE svg PUBLIC "-//W3C//DTD SVG 1.1//EN" "http://www.w3.org/Graphics/SVG/1.1/DTD/svg11.dtd"><svg class="icon" width="200px" height="200.00px" viewBox="0 0 1024 1024" version="1.1" xmlns="http://www.w3.org/2000/svg"><path fill="#ffffff" d="M508.4 167.2c50.7 0 99.9 8.9 146.1 26.4 44.4 16.8 84.2 40.8 118.4 71.4 33.8 30.2 60.2 65.1 78.6 103.9 18.8 39.7 28.4 81.8 28.4 125.1s-9.5 85.4-28.4 125.1c-18.4 38.8-44.8 73.8-78.6 103.9-34.1 30.5-74 54.5-118.4 71.4-46.3 17.5-95.5 26.4-146.2 26.4-36.6 0-73.5-5-109.7-14.8l-22.3-6-19 13c-21.7 14.9-46 26.3-72.1 34-15.5 4.6-29.1 7.1-39.8 8.4 13-12 25.2-25.9 36.4-41.8l28.3-40.1-39.6-29c-42.8-31.3-76.1-69.2-99.2-112.7-22.8-43-34.4-89.4-34.4-137.7 0-43.3 9.5-85.4 28.3-125.1 18.4-38.8 44.8-73.7 78.5-103.9 34.1-30.5 73.9-54.5 118.3-71.3 46.5-17.7 95.7-26.6 146.4-26.6m0-50c-232.3 0-421.3 168.9-421.3 376.7 0 113.9 55.8 218.9 154 290.8-16.7 23.6-35.6 41.7-56.2 53.8-25.7 14.9-25.7 31.5-23.4 40 4.9 18.4 26.9 28.2 63.4 28.2 41.3 0 104.3-13.9 160.7-52.5 40.3 10.9 81.5 16.6 122.8 16.6 232.4 0 421.5-169.1 421.5-376.8 0-207.6-189.2-376.8-421.5-376.8z"  /><path fill="#ffffff" d="M511.9 491.5m-41.5 0a41.5 41.5 0 1 0 83 0 41.5 41.5 0 1 0-83 0Z"  /><path fill="#ffffff" d="M320 491.5m-41.5 0a41.5 41.5 0 1 0 83 0 41.5 41.5 0 1 0-83 0Z"  /><path fill="#ffffff" d="M703.5 491.5m-41.5 0a41.5 41.5 0 1 0 83 0 41.5 41.5 0 1 0-83 0Z"  /></svg>