<?xml version="1.0" standalone="no"?><!DOCTYPE svg PUBLIC "-//W3C//DTD SVG 1.1//EN" "http://www.w3.org/Graphics/SVG/1.1/DTD/svg11.dtd"><svg class="icon" width="200px" height="200.00px" viewBox="0 0 1024 1024" version="1.1" xmlns="http://www.w3.org/2000/svg"><path fill="#ffffff" d="M433.226667 192a63.466667 63.466667 0 0 1 44.373333 17.92l101.333333 97.493333L597.333333 325.333333h213.333334a106.666667 106.666667 0 0 1 106.666666 106.666667v293.333333a106.666667 106.666667 0 0 1-106.666666 106.666667H213.333333a106.666667 106.666667 0 0 1-106.666666-106.666667V298.666667a106.666667 106.666667 0 0 1 106.666666-106.666667h219.893334m0-64H213.333333A170.666667 170.666667 0 0 0 42.666667 298.666667v426.666666a170.666667 170.666667 0 0 0 170.666666 170.666667h597.333334a170.666667 170.666667 0 0 0 170.666666-170.666667V432a170.666667 170.666667 0 0 0-170.666666-170.666667h-187.52l-101.333334-97.493333A128 128 0 0 0 433.226667 128z"  /><path fill="#ffffff" d="M42.666667 442.666667h938.666666v64H42.666667z"  /></svg>