<?xml version="1.0" standalone="no"?><!DOCTYPE svg PUBLIC "-//W3C//DTD SVG 1.1//EN" "http://www.w3.org/Graphics/SVG/1.1/DTD/svg11.dtd"><svg class="icon" width="200px" height="128.64px" viewBox="0 0 1592 1024" version="1.1" xmlns="http://www.w3.org/2000/svg"><path fill="#515151" d="M113.777778 227.555556h1137.777778a113.777778 113.777778 0 0 1 113.777777 113.777777v568.888889a113.777778 113.777778 0 0 1-113.777777 113.777778H113.777778a113.777778 113.777778 0 0 1-113.777778-113.777778V341.333333a113.777778 113.777778 0 0 1 113.777778-113.777777z m0 113.777777v568.888889h1137.777778V341.333333H113.777778z"  /><path fill="#515151" d="M1365.333333 796.444444V682.666667h113.777778V113.777778H341.333333v113.777778H227.555556V113.777778a113.777778 113.777778 0 0 1 113.777777-113.777778h1137.777778a113.777778 113.777778 0 0 1 113.777778 113.777778v568.888889a113.777778 113.777778 0 0 1-113.777778 113.777777h-113.777778z"  /></svg>