<?xml version="1.0" standalone="no"?><!DOCTYPE svg PUBLIC "-//W3C//DTD SVG 1.1//EN" "http://www.w3.org/Graphics/SVG/1.1/DTD/svg11.dtd"><svg t="1600932749377" class="icon" viewBox="0 0 1024 1024" version="1.1" xmlns="http://www.w3.org/2000/svg" p-id="3237" xmlns:xlink="http://www.w3.org/1999/xlink" width="200" height="200"><defs><style type="text/css"></style></defs><path d="M512 42.666667a469.333333 469.333333 0 1 0 469.333333 469.333333A469.333333 469.333333 0 0 0 512 42.666667z m78.08 597.333333l-110.506667 110.506667a151.893333 151.893333 0 0 1-213.333333-213.333334l42.666667-42.666666A42.666667 42.666667 0 1 1 363.52 554.666667l-42.666667 42.666666a69.973333 69.973333 0 0 0 98.986667 98.986667l110.08-110.08a70.4 70.4 0 0 0 14.506667-78.08 42.666667 42.666667 0 0 1-4.693334-15.786667 42.666667 42.666667 0 0 1 77.653334-21.333333 151.893333 151.893333 0 0 1-27.306667 168.96z m174.933333-165.973333l-42.666666 42.666666a42.666667 42.666667 0 1 1-57.173334-58.453333l42.666667-42.666667a69.973333 69.973333 0 0 0-98.986667-98.986666L498.773333 426.666667a70.4 70.4 0 0 0-14.506666 78.08 42.666667 42.666667 0 0 1 4.693333 15.786666 42.666667 42.666667 0 0 1-77.653333 21.333334 151.893333 151.893333 0 0 1 30.293333-170.666667l110.506667-110.506667a151.893333 151.893333 0 0 1 213.333333 213.333334z" fill="#d4237a" p-id="3238"></path><path d="M619.52 469.333333a42.666667 42.666667 0 0 0-77.653333 21.333334 42.666667 42.666667 0 0 0 4.693333 15.786666 70.4 70.4 0 0 1-14.506667 78.08l-110.08 109.653334a69.973333 69.973333 0 0 1-98.986666-98.986667l42.666666-42.666667a42.666667 42.666667 0 1 0-57.173333-58.453333l-42.666667 42.666667a151.893333 151.893333 0 0 0 213.333334 213.333333l110.933333-110.08a151.893333 151.893333 0 0 0 30.293333-170.666667z" fill="#FCFAFA" p-id="3239"></path><path d="M549.973333 260.693333L439.893333 371.2a151.893333 151.893333 0 0 0-30.293333 170.666667 42.666667 42.666667 0 0 0 77.653333-21.333334 42.666667 42.666667 0 0 0-4.693333-15.786666 70.4 70.4 0 0 1 14.506667-78.08l110.08-110.08a69.973333 69.973333 0 0 1 98.986666 98.986666l-42.666666 42.666667a42.666667 42.666667 0 1 0 57.173333 58.453333l42.666667-42.666666a151.893333 151.893333 0 0 0-213.333334-213.333334z" fill="#FCFAFA" p-id="3240"></path></svg>